<?xml version="1.0" encoding="utf-8"?>
<!-- Generator: Adobe Illustrator 16.0.0, SVG Export Plug-In . SVG Version: 6.00 Build 0)  -->
<!DOCTYPE svg PUBLIC "-//W3C//DTD SVG 1.1//EN" "http://www.w3.org/Graphics/SVG/1.1/DTD/svg11.dtd">
<svg version="1.1" id="Layer_1" xmlns="http://www.w3.org/2000/svg" xmlns:xlink="http://www.w3.org/1999/xlink" x="0px" y="0px"
	 width="512px" height="512px" viewBox="0 0 512 512" enable-background="new 0 0 512 512" xml:space="preserve">
<g id="delivery_x5F_date">
	<path fill="#935EA6" d="M117.189,123.5c-3.85,0-6.689-3.87-6.689-7.72v-51c0-3.85,2.713-7.012,6.563-7.027l1.156-0.004
		c3.85-0.015,7.281,3.123,7.281,6.973v51c0,3.85-3.367,6.778-7.217,7.778H117.189z"/>
	<path fill="#935EA6" d="M211.167,123.5c-3.85,0-6.667-3.87-6.667-7.72v-51c0-3.85,2.691-7.012,6.542-7.027l1.167-0.004
		c3.85-0.015,7.292,3.123,7.292,6.973v51c0,3.85-3.377,6.778-7.227,7.778H211.167z"/>
	<path fill="#935EA6" d="M304.334,123.5c-3.85,0-6.834-3.87-6.834-7.72v-51c0-3.85,2.857-7.012,6.708-7.027l1.083-0.004
		c3.85-0.015,7.208,3.123,7.208,6.973v51c0,3.85-3.298,6.778-7.147,7.778H304.334z"/>
	<path fill="#935EA6" d="M398.251,123.5c-3.85,0-6.751-3.87-6.751-7.72v-51c0-3.85,2.775-7.012,6.625-7.027l1.125-0.004
		c3.85-0.015,7.25,3.123,7.25,6.973v51c0,3.85-3.337,6.778-7.188,7.778H398.251z"/>
	<path fill="#935EA6" d="M466.251,85.5H421.5v30.415c0,5.867-2.417,11.614-6.562,15.789c-4.144,4.175-9.835,6.796-15.703,6.796
		h-1.003c-12.082,0-21.731-10.312-21.731-22.394V85.5h-49v30.415c0,12.131-9.998,22.585-22.129,22.585H304.3
		c-12.086,0-21.8-10.298-21.8-22.382V85.5h-48v30.415c0,12.131-10.165,22.585-22.295,22.585h-0.989
		c-12.085,0-21.716-10.298-21.716-22.382V85.5h-49v30.415c0,5.869-2.481,11.615-6.624,15.789c-4.143,4.175-9.866,6.796-15.735,6.796
		h-0.988c-12.085,0-21.653-10.314-21.653-22.398V85.5H50.25c-16.5,0-30.75,12.251-30.75,28.751v307
		c0,16.5,14.25,31.249,30.75,31.249h346.577h0.834h0.019c6.851,0,14.148-2.039,18.305-6.065l70.199-70.806
		c5.564-5.062,9.316-12.126,9.316-20.376v-0.834V114.251C495.5,97.751,482.751,85.5,466.251,85.5z M480.5,354.5h-52.336
		c-16.125,0-29.664,12.203-29.664,28.417V437.5H50.251c-8.271,0-15.751-7.978-15.751-16.249V172.5h446V354.5z"/>
	<path fill="#72939B" d="M465.5,243.5v-15h-416v15h51v56h-51v7h51v58h-51v7h51v51h8v-51h68v51h8v-51h69v51h8v-51h68v51h8v-51h47.578
		c0.68-2.424,1.569-4.764,2.652-7H337.5v-58h69v38.467c2.527-1.369,5.203-2.505,8-3.381V306.5h51v-7h-51v-56H465.5z M253.5,299.5
		h-38.347c0.472,2.282,0.783,4.622,0.95,7H253.5v58h-145v-121h68v15.428c2.762,0.713,5.431,1.655,8,2.784V243.5h69V299.5z
		 M329.5,364.5h-68v-58h68V364.5z M329.5,299.5h-68v-56h68V299.5z M406.5,299.5h-69v-56h69V299.5z"/>
	<path fill="#935EA6" d="M163.251,272.251c-20.987,0-38,17.013-38,38s17.013,38,38,38s38-17.013,38-38
		S184.238,272.251,163.251,272.251z M161.397,332.036l-0.08-0.252l-24.846-19.802l4.072-5.229l20.667,16.097l24.663-24.664
		l4.687,4.688L161.397,332.036z"/>
</g>
</svg>
